<mxfile host="Electron" agent="Mozilla/5.0 (Windows NT 10.0; Win64; x64) AppleWebKit/537.36 (KHTML, like Gecko) draw.io/26.0.9 Chrome/128.0.6613.186 Electron/32.2.5 Safari/537.36" version="26.0.9">
  <diagram name="Страница — 1" id="mhUT8JiSexu-bpIOOjVa">
    <mxGraphModel dx="5972" dy="2233" grid="1" gridSize="10" guides="1" tooltips="1" connect="1" arrows="1" fold="1" page="1" pageScale="1" pageWidth="827" pageHeight="1169" math="0" shadow="0">
      <root>
        <mxCell id="0" />
        <mxCell id="1" parent="0" />
        <mxCell id="IDzzVWDPnWyvxaZOG0bN-16" value="" style="shape=rect;fillColor=#fff2cc;strokeColor=none;fontSize=24;html=1;whiteSpace=wrap;align=left;verticalAlign=top;spacing=5;rounded=0;rotation=0;" vertex="1" parent="1">
          <mxGeometry x="-3050" y="-717" width="2250" height="180" as="geometry" />
        </mxCell>
        <mxCell id="IDzzVWDPnWyvxaZOG0bN-17" value="" style="shape=rect;fillColor=#fff2cc;strokeColor=none;fontSize=24;html=1;whiteSpace=wrap;align=left;verticalAlign=top;spacing=5;rounded=0;rotation=0;" vertex="1" parent="1">
          <mxGeometry x="-3050" y="-933.8" width="2250" height="196.8" as="geometry" />
        </mxCell>
        <mxCell id="IDzzVWDPnWyvxaZOG0bN-20" value="Медицина" style="rounded=0;whiteSpace=wrap;html=1;fillColor=#f5f5f5;fontColor=#333333;strokeColor=#666666;fontSize=18;" vertex="1" parent="1">
          <mxGeometry x="-3180" y="-933.8" width="120" height="196.8" as="geometry" />
        </mxCell>
        <mxCell id="IDzzVWDPnWyvxaZOG0bN-21" value="Финтех" style="rounded=0;whiteSpace=wrap;html=1;fillColor=#f5f5f5;fontColor=#333333;strokeColor=#666666;fontSize=18;" vertex="1" parent="1">
          <mxGeometry x="-3180" y="-717" width="120" height="180" as="geometry" />
        </mxCell>
        <mxCell id="IDzzVWDPnWyvxaZOG0bN-24" value="Q1" style="shape=step;perimeter=stepPerimeter;whiteSpace=wrap;html=1;fixedSize=1;size=10;fillColor=#f5f5f5;strokeColor=#666666;fontSize=18;fontStyle=1;align=center;rounded=0;fontColor=#333333;" vertex="1" parent="1">
          <mxGeometry x="-3050" y="-1031" width="550" height="74.4" as="geometry" />
        </mxCell>
        <mxCell id="IDzzVWDPnWyvxaZOG0bN-25" value="Q2" style="shape=step;perimeter=stepPerimeter;whiteSpace=wrap;html=1;fixedSize=1;size=10;fillColor=#f5f5f5;strokeColor=#666666;fontSize=18;fontStyle=1;align=center;rounded=0;fontColor=#333333;rotation=0;" vertex="1" parent="1">
          <mxGeometry x="-2490" y="-1031" width="550" height="74.4" as="geometry" />
        </mxCell>
        <mxCell id="IDzzVWDPnWyvxaZOG0bN-26" value="Q4" style="shape=step;perimeter=stepPerimeter;whiteSpace=wrap;html=1;fixedSize=1;size=10;fillColor=#f5f5f5;strokeColor=#666666;fontSize=18;fontStyle=1;align=center;rounded=0;fontColor=#333333;rotation=0;" vertex="1" parent="1">
          <mxGeometry x="-1370" y="-1031" width="550" height="74.4" as="geometry" />
        </mxCell>
        <mxCell id="IDzzVWDPnWyvxaZOG0bN-27" value="Q3" style="shape=step;perimeter=stepPerimeter;whiteSpace=wrap;html=1;fixedSize=1;size=10;fillColor=#f5f5f5;strokeColor=#666666;fontSize=18;fontStyle=1;align=center;rounded=0;fontColor=#333333;rotation=0;" vertex="1" parent="1">
          <mxGeometry x="-1930" y="-1031" width="550" height="74.4" as="geometry" />
        </mxCell>
        <mxCell id="IDzzVWDPnWyvxaZOG0bN-31" value="" style="shape=rect;fillColor=#fff2cc;strokeColor=none;fontSize=24;html=1;whiteSpace=wrap;align=left;verticalAlign=top;spacing=5;rounded=0;rotation=0;" vertex="1" parent="1">
          <mxGeometry x="-3050" y="-517" width="2250" height="180" as="geometry" />
        </mxCell>
        <mxCell id="IDzzVWDPnWyvxaZOG0bN-32" value="ИИ" style="rounded=0;whiteSpace=wrap;html=1;fillColor=#f5f5f5;fontColor=#333333;strokeColor=#666666;fontSize=18;" vertex="1" parent="1">
          <mxGeometry x="-3180" y="-517" width="120" height="180" as="geometry" />
        </mxCell>
        <mxCell id="IDzzVWDPnWyvxaZOG0bN-35" value="" style="shape=rect;fillColor=#fff2cc;strokeColor=none;fontSize=24;html=1;whiteSpace=wrap;align=left;verticalAlign=top;spacing=5;rounded=0;rotation=0;" vertex="1" parent="1">
          <mxGeometry x="-3050" y="-307" width="2250" height="180" as="geometry" />
        </mxCell>
        <mxCell id="IDzzVWDPnWyvxaZOG0bN-36" value="Управление" style="rounded=0;whiteSpace=wrap;html=1;fillColor=#f5f5f5;fontColor=#333333;strokeColor=#666666;fontSize=18;" vertex="1" parent="1">
          <mxGeometry x="-3180" y="-307" width="120" height="180" as="geometry" />
        </mxCell>
        <mxCell id="IDzzVWDPnWyvxaZOG0bN-39" value="" style="shape=rect;fillColor=#fff2cc;strokeColor=none;fontSize=24;html=1;whiteSpace=wrap;align=left;verticalAlign=top;spacing=5;rounded=0;rotation=0;" vertex="1" parent="1">
          <mxGeometry x="-3050" y="-107" width="2250" height="180" as="geometry" />
        </mxCell>
        <mxCell id="IDzzVWDPnWyvxaZOG0bN-40" value="Аналитика" style="rounded=0;whiteSpace=wrap;html=1;fillColor=#f5f5f5;fontColor=#333333;strokeColor=#666666;fontSize=18;" vertex="1" parent="1">
          <mxGeometry x="-3180" y="-107" width="120" height="180" as="geometry" />
        </mxCell>
        <mxCell id="IDzzVWDPnWyvxaZOG0bN-66" value="2025" style="shape=step;perimeter=stepPerimeter;whiteSpace=wrap;html=1;fixedSize=1;size=10;fillColor=#f5f5f5;strokeColor=#666666;fontSize=18;fontStyle=1;align=center;rounded=0;fontColor=#333333;" vertex="1" parent="1">
          <mxGeometry x="-3050" y="-1130" width="2230" height="74.4" as="geometry" />
        </mxCell>
        <mxCell id="IDzzVWDPnWyvxaZOG0bN-67" value="1 - Определение доменов&amp;nbsp;&lt;div&gt;Анализ технологического радара&lt;/div&gt;" style="shape=rect;fillColor=#ffe6cc;strokeColor=#d79b00;fontSize=18;html=1;whiteSpace=wrap;align=left;verticalAlign=top;spacing=5;rounded=0;" vertex="1" parent="1">
          <mxGeometry x="-3035" y="-921" width="525" height="60" as="geometry" />
        </mxCell>
        <mxCell id="IDzzVWDPnWyvxaZOG0bN-68" value="2 - Подготовка к разделению" style="shape=rect;fillColor=#ffe6cc;strokeColor=#d79b00;fontSize=18;html=1;whiteSpace=wrap;align=left;verticalAlign=top;spacing=5;rounded=0;" vertex="1" parent="1">
          <mxGeometry x="-3035" y="-841" width="525" height="50" as="geometry" />
        </mxCell>
        <mxCell id="IDzzVWDPnWyvxaZOG0bN-69" value="1 - Определение доменов&amp;nbsp;&lt;div&gt;Анализ технологического радара&lt;/div&gt;" style="shape=rect;fillColor=#ffe6cc;strokeColor=#d79b00;fontSize=18;html=1;whiteSpace=wrap;align=left;verticalAlign=top;spacing=5;rounded=0;" vertex="1" parent="1">
          <mxGeometry x="-3035" y="-697" width="525" height="60" as="geometry" />
        </mxCell>
        <mxCell id="IDzzVWDPnWyvxaZOG0bN-70" value="1 - Определение доменов&amp;nbsp;&lt;div&gt;Анализ технологического радара&lt;/div&gt;" style="shape=rect;fillColor=#ffe6cc;strokeColor=#d79b00;fontSize=18;html=1;whiteSpace=wrap;align=left;verticalAlign=top;spacing=5;rounded=0;" vertex="1" parent="1">
          <mxGeometry x="-3035" y="-501" width="525" height="60" as="geometry" />
        </mxCell>
        <mxCell id="IDzzVWDPnWyvxaZOG0bN-71" value="1 - Определение доменов&amp;nbsp;&lt;div&gt;Анализ технологического радара&lt;/div&gt;" style="shape=rect;fillColor=#ffe6cc;strokeColor=#d79b00;fontSize=18;html=1;whiteSpace=wrap;align=left;verticalAlign=top;spacing=5;rounded=0;" vertex="1" parent="1">
          <mxGeometry x="-3035" y="-287" width="525" height="60" as="geometry" />
        </mxCell>
        <mxCell id="IDzzVWDPnWyvxaZOG0bN-72" value="1 - Определение доменов&amp;nbsp;&lt;div&gt;Анализ технологического радара&lt;/div&gt;" style="shape=rect;fillColor=#ffe6cc;strokeColor=#d79b00;fontSize=18;html=1;whiteSpace=wrap;align=left;verticalAlign=top;spacing=5;rounded=0;" vertex="1" parent="1">
          <mxGeometry x="-3035" y="-87" width="525" height="60" as="geometry" />
        </mxCell>
        <mxCell id="IDzzVWDPnWyvxaZOG0bN-73" value="2 - Подготовка к разделению" style="shape=rect;fillColor=#ffe6cc;strokeColor=#d79b00;fontSize=18;html=1;whiteSpace=wrap;align=left;verticalAlign=top;spacing=5;rounded=0;" vertex="1" parent="1">
          <mxGeometry x="-3035" y="-621" width="525" height="50" as="geometry" />
        </mxCell>
        <mxCell id="IDzzVWDPnWyvxaZOG0bN-74" value="2 - Подготовка к разделению" style="shape=rect;fillColor=#ffe6cc;strokeColor=#d79b00;fontSize=18;html=1;whiteSpace=wrap;align=left;verticalAlign=top;spacing=5;rounded=0;" vertex="1" parent="1">
          <mxGeometry x="-3035" y="-421" width="525" height="50" as="geometry" />
        </mxCell>
        <mxCell id="IDzzVWDPnWyvxaZOG0bN-75" value="2 - Подготовка к разделению" style="shape=rect;fillColor=#ffe6cc;strokeColor=#d79b00;fontSize=18;html=1;whiteSpace=wrap;align=left;verticalAlign=top;spacing=5;rounded=0;" vertex="1" parent="1">
          <mxGeometry x="-3037.5" y="-207" width="527.5" height="50" as="geometry" />
        </mxCell>
        <mxCell id="IDzzVWDPnWyvxaZOG0bN-76" value="2 - Подготовка к разделению" style="shape=rect;fillColor=#ffe6cc;strokeColor=#d79b00;fontSize=18;html=1;whiteSpace=wrap;align=left;verticalAlign=top;spacing=5;rounded=0;" vertex="1" parent="1">
          <mxGeometry x="-3035" y="-11" width="525" height="50" as="geometry" />
        </mxCell>
        <mxCell id="IDzzVWDPnWyvxaZOG0bN-77" value="3 - Миграция данных&lt;div&gt;Переход на Postgres для DWH&lt;/div&gt;" style="shape=rect;fillColor=#ffe6cc;strokeColor=#d79b00;fontSize=18;html=1;whiteSpace=wrap;align=left;verticalAlign=top;spacing=5;rounded=0;" vertex="1" parent="1">
          <mxGeometry x="-2477.5" y="-921" width="525" height="71" as="geometry" />
        </mxCell>
        <mxCell id="IDzzVWDPnWyvxaZOG0bN-78" value="3 - Миграция данных&lt;div&gt;Переход на Postgres для DWH&lt;/div&gt;" style="shape=rect;fillColor=#ffe6cc;strokeColor=#d79b00;fontSize=18;html=1;whiteSpace=wrap;align=left;verticalAlign=top;spacing=5;rounded=0;" vertex="1" parent="1">
          <mxGeometry x="-2477.5" y="-692" width="525" height="61" as="geometry" />
        </mxCell>
        <mxCell id="IDzzVWDPnWyvxaZOG0bN-80" value="5 - Оптимизация сервисов&lt;div&gt;Внедрение ролевой модели&lt;br&gt;&lt;/div&gt;" style="shape=rect;fillColor=#ffe6cc;strokeColor=#d79b00;fontSize=18;html=1;whiteSpace=wrap;align=left;verticalAlign=top;spacing=5;rounded=0;" vertex="1" parent="1">
          <mxGeometry x="-1917.5" y="-692" width="525" height="61" as="geometry" />
        </mxCell>
        <mxCell id="IDzzVWDPnWyvxaZOG0bN-81" value="4 - Интеграция&lt;div&gt;Переход на другую шину данных&lt;br&gt;&lt;/div&gt;" style="shape=rect;fillColor=#ffe6cc;strokeColor=#d79b00;fontSize=18;html=1;whiteSpace=wrap;align=left;verticalAlign=top;spacing=5;rounded=0;" vertex="1" parent="1">
          <mxGeometry x="-2477.5" y="-501" width="525" height="70" as="geometry" />
        </mxCell>
        <mxCell id="IDzzVWDPnWyvxaZOG0bN-82" value="4 - Интеграция&lt;div&gt;Переход на другую шину данных&lt;br&gt;&lt;/div&gt;" style="shape=rect;fillColor=#ffe6cc;strokeColor=#d79b00;fontSize=18;html=1;whiteSpace=wrap;align=left;verticalAlign=top;spacing=5;rounded=0;" vertex="1" parent="1">
          <mxGeometry x="-2477.5" y="-287" width="525" height="66" as="geometry" />
        </mxCell>
        <mxCell id="IDzzVWDPnWyvxaZOG0bN-83" value="4 - Интеграция&lt;div&gt;Переход на другую шину данных&lt;br&gt;&lt;/div&gt;" style="shape=rect;fillColor=#ffe6cc;strokeColor=#d79b00;fontSize=18;html=1;whiteSpace=wrap;align=left;verticalAlign=top;spacing=5;rounded=0;" vertex="1" parent="1">
          <mxGeometry x="-2477.5" y="-87" width="525" height="66" as="geometry" />
        </mxCell>
        <mxCell id="IDzzVWDPnWyvxaZOG0bN-84" value="6 - Вывод в тестовую эксплуатацию" style="shape=rect;fillColor=#ffe6cc;strokeColor=#d79b00;fontSize=18;html=1;whiteSpace=wrap;align=left;verticalAlign=top;spacing=5;rounded=0;" vertex="1" parent="1">
          <mxGeometry x="-1917.5" y="-921" width="525" height="50" as="geometry" />
        </mxCell>
        <mxCell id="IDzzVWDPnWyvxaZOG0bN-85" value="&lt;div&gt;&lt;font style=&quot;font-size: 14px;&quot;&gt;Этап подготовки&lt;/font&gt;&lt;/div&gt;&lt;div&gt;&lt;br&gt;&lt;/div&gt;" style="text;html=1;whiteSpace=wrap;overflow=hidden;rounded=0;" vertex="1" parent="1">
          <mxGeometry x="-3037.5" y="99" width="230" height="40" as="geometry" />
        </mxCell>
        <mxCell id="IDzzVWDPnWyvxaZOG0bN-86" value="&lt;div&gt;&lt;font style=&quot;font-size: 14px;&quot;&gt;Этап миграции&lt;/font&gt;&lt;/div&gt;&lt;div&gt;&lt;font style=&quot;font-size: 14px;&quot;&gt;Разделение на зоны ответсвенности&lt;/font&gt;&lt;/div&gt;&lt;div&gt;&lt;font style=&quot;font-size: 14px;&quot;&gt;Начало разработки&lt;/font&gt;&lt;/div&gt;" style="text;html=1;whiteSpace=wrap;overflow=hidden;rounded=0;" vertex="1" parent="1">
          <mxGeometry x="-2477.5" y="99" width="230" height="90" as="geometry" />
        </mxCell>
        <mxCell id="IDzzVWDPnWyvxaZOG0bN-87" value="&lt;div&gt;&lt;font style=&quot;font-size: 14px;&quot;&gt;Этап разработки&lt;/font&gt;&lt;/div&gt;&lt;div&gt;&lt;font style=&quot;font-size: 14px;&quot;&gt;Тестирование и доработки&lt;/font&gt;&lt;/div&gt;&lt;div&gt;&lt;br&gt;&lt;/div&gt;" style="text;html=1;whiteSpace=wrap;overflow=hidden;rounded=0;" vertex="1" parent="1">
          <mxGeometry x="-1917.5" y="109" width="230" height="40" as="geometry" />
        </mxCell>
        <mxCell id="IDzzVWDPnWyvxaZOG0bN-88" value="&lt;div&gt;&lt;font style=&quot;font-size: 14px;&quot;&gt;Ввод в эксплуатацию&lt;/font&gt;&lt;/div&gt;&lt;div&gt;&lt;font style=&quot;font-size: 14px;&quot;&gt;Мониторинг&lt;/font&gt;&lt;/div&gt;" style="text;html=1;whiteSpace=wrap;overflow=hidden;rounded=0;" vertex="1" parent="1">
          <mxGeometry x="-1357.5" y="99" width="230" height="40" as="geometry" />
        </mxCell>
        <mxCell id="IDzzVWDPnWyvxaZOG0bN-89" value="5 - Оптимизация сервисов" style="shape=rect;fillColor=#ffe6cc;strokeColor=#d79b00;fontSize=18;html=1;whiteSpace=wrap;align=left;verticalAlign=top;spacing=5;rounded=0;" vertex="1" parent="1">
          <mxGeometry x="-1357.5" y="-697" width="525" height="50" as="geometry" />
        </mxCell>
        <mxCell id="IDzzVWDPnWyvxaZOG0bN-90" value="6 - Вывод в тестовую эксплуатацию" style="shape=rect;fillColor=#ffe6cc;strokeColor=#d79b00;fontSize=18;html=1;whiteSpace=wrap;align=left;verticalAlign=top;spacing=5;rounded=0;" vertex="1" parent="1">
          <mxGeometry x="-1917.5" y="-621" width="525" height="50" as="geometry" />
        </mxCell>
        <mxCell id="IDzzVWDPnWyvxaZOG0bN-91" value="6 - Вывод в тестовую эксплуатацию" style="shape=rect;fillColor=#ffe6cc;strokeColor=#d79b00;fontSize=18;html=1;whiteSpace=wrap;align=left;verticalAlign=top;spacing=5;rounded=0;" vertex="1" parent="1">
          <mxGeometry x="-1917.5" y="-501" width="525" height="50" as="geometry" />
        </mxCell>
        <mxCell id="IDzzVWDPnWyvxaZOG0bN-92" value="6 - Вывод в тестовую эксплуатацию" style="shape=rect;fillColor=#ffe6cc;strokeColor=#d79b00;fontSize=18;html=1;whiteSpace=wrap;align=left;verticalAlign=top;spacing=5;rounded=0;" vertex="1" parent="1">
          <mxGeometry x="-1917.5" y="-287" width="525" height="50" as="geometry" />
        </mxCell>
        <mxCell id="IDzzVWDPnWyvxaZOG0bN-93" value="6 - Вывод в тестовую эксплуатацию" style="shape=rect;fillColor=#ffe6cc;strokeColor=#d79b00;fontSize=18;html=1;whiteSpace=wrap;align=left;verticalAlign=top;spacing=5;rounded=0;" vertex="1" parent="1">
          <mxGeometry x="-1917.5" y="-87" width="1087.5" height="50" as="geometry" />
        </mxCell>
        <mxCell id="IDzzVWDPnWyvxaZOG0bN-94" value="7 - Вывод в промышленную эксплуатацию" style="shape=rect;fillColor=#ffe6cc;strokeColor=#d79b00;fontSize=18;html=1;whiteSpace=wrap;align=left;verticalAlign=top;spacing=5;rounded=0;" vertex="1" parent="1">
          <mxGeometry x="-1357.5" y="-921" width="525" height="50" as="geometry" />
        </mxCell>
        <mxCell id="IDzzVWDPnWyvxaZOG0bN-95" value="7 - Вывод в промышленную эксплуатацию" style="shape=rect;fillColor=#ffe6cc;strokeColor=#d79b00;fontSize=18;html=1;whiteSpace=wrap;align=left;verticalAlign=top;spacing=5;rounded=0;" vertex="1" parent="1">
          <mxGeometry x="-1357.5" y="-621" width="525" height="50" as="geometry" />
        </mxCell>
        <mxCell id="IDzzVWDPnWyvxaZOG0bN-96" value="7 - Вывод в промышленную эксплуатацию" style="shape=rect;fillColor=#ffe6cc;strokeColor=#d79b00;fontSize=18;html=1;whiteSpace=wrap;align=left;verticalAlign=top;spacing=5;rounded=0;" vertex="1" parent="1">
          <mxGeometry x="-1357.5" y="-501" width="525" height="50" as="geometry" />
        </mxCell>
        <mxCell id="IDzzVWDPnWyvxaZOG0bN-97" value="7 - Вывод в промышленную эксплуатацию" style="shape=rect;fillColor=#ffe6cc;strokeColor=#d79b00;fontSize=18;html=1;whiteSpace=wrap;align=left;verticalAlign=top;spacing=5;rounded=0;" vertex="1" parent="1">
          <mxGeometry x="-1357.5" y="-287" width="525" height="50" as="geometry" />
        </mxCell>
        <mxCell id="IDzzVWDPnWyvxaZOG0bN-100" value="5 - Оптимизация сервисов&lt;div&gt;Внедрение ролевой модели&lt;br&gt;&lt;/div&gt;" style="shape=rect;fillColor=#ffe6cc;strokeColor=#d79b00;fontSize=18;html=1;whiteSpace=wrap;align=left;verticalAlign=top;spacing=5;rounded=0;" vertex="1" parent="1">
          <mxGeometry x="-1917.5" y="-851" width="525" height="60" as="geometry" />
        </mxCell>
      </root>
    </mxGraphModel>
  </diagram>
</mxfile>
